<mxfile host="www.draw.io" modified="2020-03-06T15:56:31.573Z" agent="Mozilla/5.0 (Windows NT 10.0; WOW64) AppleWebKit/537.36 (KHTML, like Gecko) Chrome/79.0.3945.88 Safari/537.36" etag="3OqBuHa5wUZjvkMWkfmT" version="12.8.1" type="github">
  <diagram id="6a731a19-8d31-9384-78a2-239565b7b9f0" name="Page-1">
    <mxGraphModel dx="1303" dy="728" grid="1" gridSize="10" guides="1" tooltips="1" connect="1" arrows="1" fold="1" page="1" pageScale="1" pageWidth="1169" pageHeight="827" background="#ffffff" math="0" shadow="0">
      <root>
        <mxCell id="0" />
        <mxCell id="1" parent="0" />
        <mxCell id="1753" value="" style="rounded=1;whiteSpace=wrap;html=1;shadow=0;labelBackgroundColor=none;strokeColor=none;strokeWidth=3;fillColor=#e85642;fontFamily=Helvetica;fontSize=14;fontColor=#FFFFFF;align=center;spacing=5;fontStyle=1;arcSize=7;perimeterSpacing=2;" parent="1" vertex="1">
          <mxGeometry x="80" y="460" width="890" height="120" as="geometry" />
        </mxCell>
        <mxCell id="1760" value="&lt;font style=&quot;font-size: 27px&quot;&gt;DB存储持久化&lt;/font&gt;" style="rounded=1;whiteSpace=wrap;html=1;shadow=0;labelBackgroundColor=none;strokeColor=none;strokeWidth=3;fillColor=#1699d3;fontFamily=Helvetica;fontSize=14;fontColor=#FFFFFF;align=center;spacing=5;fontStyle=1;arcSize=7;perimeterSpacing=2;" parent="1" vertex="1">
          <mxGeometry x="80" y="710" width="900" height="110" as="geometry" />
        </mxCell>
        <mxCell id="1763" value="&lt;font style=&quot;font-size: 25px&quot;&gt;&lt;font style=&quot;font-size: 25px&quot;&gt;扩&lt;/font&gt;列资料&lt;/font&gt;" style="rounded=1;whiteSpace=wrap;html=1;shadow=0;labelBackgroundColor=none;strokeColor=none;strokeWidth=3;fillColor=#64bbe2;fontFamily=Helvetica;fontSize=14;fontColor=#FFFFFF;align=center;spacing=5;arcSize=7;perimeterSpacing=2;" parent="1" vertex="1">
          <mxGeometry x="90" y="735" width="150" height="60" as="geometry" />
        </mxCell>
        <mxCell id="1771" value="&lt;span style=&quot;font-size: 27px&quot;&gt;公共模块层&lt;/span&gt;" style="rounded=1;whiteSpace=wrap;html=1;shadow=0;labelBackgroundColor=none;strokeColor=none;strokeWidth=3;fillColor=#12aab5;fontFamily=Helvetica;fontSize=14;fontColor=#FFFFFF;align=center;spacing=5;fontStyle=1;arcSize=7;perimeterSpacing=2;" parent="1" vertex="1">
          <mxGeometry x="80" y="590" width="890" height="110" as="geometry" />
        </mxCell>
        <mxCell id="1778" value="&lt;font style=&quot;font-size: 25px&quot;&gt;模块路由&lt;/font&gt;" style="rounded=1;whiteSpace=wrap;html=1;shadow=0;labelBackgroundColor=none;strokeColor=none;strokeWidth=3;fillColor=#61c6ce;fontFamily=Helvetica;fontSize=14;fontColor=#FFFFFF;align=center;spacing=5;fontStyle=0;arcSize=7;perimeterSpacing=2;" parent="1" vertex="1">
          <mxGeometry x="90" y="615" width="150" height="60" as="geometry" />
        </mxCell>
        <mxCell id="OyEWDWxBlRXs1DyXWQbl-1779" value="&lt;span style=&quot;font-size: 25px&quot;&gt;同学&lt;/span&gt;" style="rounded=1;whiteSpace=wrap;html=1;shadow=0;labelBackgroundColor=none;strokeColor=none;strokeWidth=3;fillColor=#64bbe2;fontFamily=Helvetica;fontSize=14;fontColor=#FFFFFF;align=center;spacing=5;arcSize=7;perimeterSpacing=2;" vertex="1" parent="1">
          <mxGeometry x="270" y="735" width="150" height="60" as="geometry" />
        </mxCell>
        <mxCell id="OyEWDWxBlRXs1DyXWQbl-1780" value="&lt;span style=&quot;font-size: 25px&quot;&gt;自习室&lt;/span&gt;" style="rounded=1;whiteSpace=wrap;html=1;shadow=0;labelBackgroundColor=none;strokeColor=none;strokeWidth=3;fillColor=#64bbe2;fontFamily=Helvetica;fontSize=14;fontColor=#FFFFFF;align=center;spacing=5;arcSize=7;perimeterSpacing=2;" vertex="1" parent="1">
          <mxGeometry x="660" y="735" width="150" height="60" as="geometry" />
        </mxCell>
        <mxCell id="OyEWDWxBlRXs1DyXWQbl-1785" value="&lt;font style=&quot;font-size: 28px&quot;&gt;同学模块&lt;/font&gt;" style="rounded=1;whiteSpace=wrap;html=1;shadow=0;labelBackgroundColor=none;strokeColor=none;strokeWidth=3;fillColor=#f08e81;fontFamily=Helvetica;fontSize=14;fontColor=#FFFFFF;align=center;spacing=5;fontStyle=0;arcSize=7;perimeterSpacing=2;" vertex="1" parent="1">
          <mxGeometry x="90" y="485" width="150" height="60" as="geometry" />
        </mxCell>
        <mxCell id="OyEWDWxBlRXs1DyXWQbl-1786" value="&lt;font style=&quot;font-size: 25px&quot;&gt;模块间通信&lt;/font&gt;" style="rounded=1;whiteSpace=wrap;html=1;shadow=0;labelBackgroundColor=none;strokeColor=none;strokeWidth=3;fillColor=#61c6ce;fontFamily=Helvetica;fontSize=14;fontColor=#FFFFFF;align=center;spacing=5;fontStyle=0;arcSize=7;perimeterSpacing=2;" vertex="1" parent="1">
          <mxGeometry x="255" y="615" width="150" height="60" as="geometry" />
        </mxCell>
        <mxCell id="OyEWDWxBlRXs1DyXWQbl-1787" value="&lt;font style=&quot;font-size: 25px&quot;&gt;模块生命周期&lt;/font&gt;" style="rounded=1;whiteSpace=wrap;html=1;shadow=0;labelBackgroundColor=none;strokeColor=none;strokeWidth=3;fillColor=#61c6ce;fontFamily=Helvetica;fontSize=14;fontColor=#FFFFFF;align=center;spacing=5;fontStyle=0;arcSize=7;perimeterSpacing=2;" vertex="1" parent="1">
          <mxGeometry x="660" y="615" width="190" height="60" as="geometry" />
        </mxCell>
        <mxCell id="OyEWDWxBlRXs1DyXWQbl-1788" value="&lt;font style=&quot;font-size: 28px&quot;&gt;匹配模块&lt;/font&gt;" style="rounded=1;whiteSpace=wrap;html=1;shadow=0;labelBackgroundColor=none;strokeColor=none;strokeWidth=3;fillColor=#f08e81;fontFamily=Helvetica;fontSize=14;fontColor=#FFFFFF;align=center;spacing=5;fontStyle=0;arcSize=7;perimeterSpacing=2;" vertex="1" parent="1">
          <mxGeometry x="260" y="485" width="150" height="60" as="geometry" />
        </mxCell>
        <mxCell id="OyEWDWxBlRXs1DyXWQbl-1789" value="&lt;font style=&quot;font-size: 28px&quot;&gt;资料卡&lt;/font&gt;" style="rounded=1;whiteSpace=wrap;html=1;shadow=0;labelBackgroundColor=none;strokeColor=none;strokeWidth=3;fillColor=#f08e81;fontFamily=Helvetica;fontSize=14;fontColor=#FFFFFF;align=center;spacing=5;fontStyle=0;arcSize=7;perimeterSpacing=2;" vertex="1" parent="1">
          <mxGeometry x="435" y="485" width="150" height="60" as="geometry" />
        </mxCell>
        <mxCell id="OyEWDWxBlRXs1DyXWQbl-1790" value="&lt;font style=&quot;font-size: 28px&quot;&gt;自习室&lt;/font&gt;" style="rounded=1;whiteSpace=wrap;html=1;shadow=0;labelBackgroundColor=none;strokeColor=none;strokeWidth=3;fillColor=#f08e81;fontFamily=Helvetica;fontSize=14;fontColor=#FFFFFF;align=center;spacing=5;fontStyle=0;arcSize=7;perimeterSpacing=2;" vertex="1" parent="1">
          <mxGeometry x="610" y="485" width="150" height="60" as="geometry" />
        </mxCell>
        <mxCell id="OyEWDWxBlRXs1DyXWQbl-1791" value="&lt;font style=&quot;font-size: 28px&quot;&gt;说说&lt;/font&gt;" style="rounded=1;whiteSpace=wrap;html=1;shadow=0;labelBackgroundColor=none;strokeColor=none;strokeWidth=3;fillColor=#f08e81;fontFamily=Helvetica;fontSize=14;fontColor=#FFFFFF;align=center;spacing=5;fontStyle=0;arcSize=7;perimeterSpacing=2;" vertex="1" parent="1">
          <mxGeometry x="780" y="485" width="150" height="60" as="geometry" />
        </mxCell>
      </root>
    </mxGraphModel>
  </diagram>
</mxfile>
